<?xml version='1.0' encoding='utf-8'?><!DOCTYPE svg PUBLIC "-//W3C//DTD SVG 1.1//EN" "http://www.w3.org/Graphics/SVG/1.1/DTD/svg11.dtd" []><svg xmlns="http://www.w3.org/2000/svg" xmlns:xlink="http://www.w3.org/1999/xlink" version="1.1" id="Layer_1" x="0px" y="0px" width="24px" height="24px" viewBox="0 0 24 24" enable-background="new 0 0 24 24" xml:space="preserve" preserveAspectRatio="xMidYMid meet" zoomAndPan="magnify" contentScriptType="application/ecmascript" contentStyleType="text/css">
		<path fill="#ffffff" d="M23.012,18.146c-0.262,0-0.514-0.148-0.641-0.407c-0.023-0.045-1.135-2.264-3.036-4.608    c-2.033,2.186-4.71,4.211-7.862,4.641C7.8,18.267,4.167,16.5,0.704,12.502L0.269,12l0.436-0.502    C4.167,7.5,7.79,5.729,11.473,6.229c3.154,0.429,5.83,2.456,7.864,4.643c1.9-2.346,3.011-4.565,3.034-4.61    c0.182-0.369,0.613-0.513,0.969-0.325c0.354,0.189,0.494,0.641,0.312,1.01C23.555,7.143,22.366,9.517,20.323,12    c2.043,2.483,3.231,4.857,3.328,5.054c0.183,0.369,0.043,0.82-0.312,1.01C23.235,18.12,23.123,18.146,23.012,18.146z M2.22,12    c2.985,3.256,6.033,4.706,9.066,4.283c2.787-0.379,5.212-2.254,7.076-4.281c-1.866-2.031-4.292-3.909-7.08-4.287    C8.253,7.301,5.204,8.745,2.22,12z"/>

</svg>