<?xml version='1.0' encoding='utf-8'?><!-- Generator: Adobe Illustrator 16.0.3, SVG Export Plug-In . SVG Version: 6.00 Build 0)  --><!DOCTYPE svg PUBLIC "-//W3C//DTD SVG 1.1//EN" "http://www.w3.org/Graphics/SVG/1.1/DTD/svg11.dtd" []><svg xmlns="http://www.w3.org/2000/svg" xmlns:xlink="http://www.w3.org/1999/xlink" version="1.1" x="0px" y="0px" width="24px" height="24px" viewBox="0 0 24 24" enable-background="new 0 0 24 24" xml:space="preserve" preserveAspectRatio="xMidYMid meet" zoomAndPan="magnify" contentScriptType="application/ecmascript" contentStyleType="text/css">
<g id="Layer_1">
</g>
<g id="Layer_2">
</g>
<g id="Layer_3">
</g>
<g id="Layer_4">
</g>
<g id="Layer_5">
	<g>
		<g id="_x31_0_5_">
			<g>
				<path fill="#FFFFFF" d="M21.705,2.299c-0.099,0-0.188,0.025-0.271,0.062L10.711,4.886c-0.357,0-0.646,0.289-0.646,0.646v9.056      c-1.358-0.884-3.543-0.882-5.492,0.153c-2.459,1.309-3.588,3.746-2.523,5.447c1.064,1.697,3.922,2.016,6.38,0.707      c1.586-0.844,2.681-2.439,2.929-3.721c0-0.168,0-11.147,0-11.147l9.701-2.282V12c-1.358-0.883-3.542-0.883-5.491,0.154      c-2.46,1.309-3.589,3.746-2.524,5.445c1.064,1.698,4.032,2.098,6.502,0.809c1.848-0.964,2.659-2.459,2.808-3.822      c0-0.229,0-11.641,0-11.641C22.353,2.588,22.062,2.299,21.705,2.299z M8.124,19.76c-1.872,1.018-4.009,1.037-4.91-0.081      s-0.11-2.841,1.767-3.848s3.525-0.969,4.635-0.147C10.832,16.583,9.719,18.896,8.124,19.76z M19.216,17.295      c-1.851,1.035-4.117,0.884-5.007-0.235c-0.89-1.12-0.09-2.829,1.786-3.818c1.877-0.989,3.592-1.029,4.616-0.114      C21.714,14.109,20.769,16.427,19.216,17.295z"/>
			</g>
		</g>
	</g>
</g>
<g id="Layer_6">
</g>
<g id="Layer_7">
</g>
<g id="Layer_8">
</g>
<g id="Layer_9">
</g>
<g id="Layer_10">
</g>
<g id="Layer_11">
</g>
</svg>