<?xml version='1.0' encoding='utf-8'?><!-- Generator: Adobe Illustrator 16.0.3, SVG Export Plug-In . SVG Version: 6.00 Build 0)  --><!DOCTYPE svg PUBLIC "-//W3C//DTD SVG 1.1//EN" "http://www.w3.org/Graphics/SVG/1.1/DTD/svg11.dtd" []><svg xmlns="http://www.w3.org/2000/svg" xmlns:xlink="http://www.w3.org/1999/xlink" version="1.1" x="0px" y="0px" width="24px" height="24px" viewBox="0 0 24 24" enable-background="new 0 0 24 24" xml:space="preserve" preserveAspectRatio="xMidYMid meet" zoomAndPan="magnify" contentScriptType="application/ecmascript" contentStyleType="text/css">
<g id="Layer_1">
</g>
<g id="Layer_2">
	<g>
		<g>
			<path fill="#FFFFFF" d="M20.584,0.418H3.415c-1.671,0-3.03,1.359-3.03,3.031v17.104c0,1.67,1.359,3.029,3.03,3.029h17.169     c1.671,0,3.031-1.359,3.031-3.029V3.449C23.615,1.777,22.255,0.418,20.584,0.418L20.584,0.418z M22.402,3.449v7.945h-9.797V1.63     h7.979C21.587,1.63,22.402,2.445,22.402,3.449L22.402,3.449z M1.597,3.449c0-1.004,0.815-1.819,1.818-1.819l0,0h7.979v9.765     H1.597 M1.597,20.553v-7.945h9.797v9.762H3.415C2.412,22.369,1.597,21.555,1.597,20.553L1.597,20.553z M20.584,22.369h-7.979     v-9.762h9.797v7.945C22.402,21.555,21.587,22.369,20.584,22.369L20.584,22.369z M20.584,22.369"/>
		</g>
		<path fill="#FFFFFF" d="M14.629,7.379h2.17v2.17c0,0.336,0.271,0.606,0.606,0.606c0.334,0,0.606-0.271,0.606-0.606v-2.17h2.17    c0.334,0,0.605-0.271,0.605-0.606c0-0.334-0.271-0.605-0.605-0.605h-2.17v-2.17c0-0.334-0.272-0.605-0.606-0.605    c-0.335,0-0.606,0.271-0.606,0.605v2.17h-2.17c-0.334,0-0.605,0.271-0.605,0.606S14.295,7.379,14.629,7.379L14.629,7.379z     M14.629,7.379"/>
		<path fill="#FFFFFF" d="M3.847,9.515c0.118,0.119,0.272,0.178,0.429,0.178c0.154,0,0.31-0.059,0.429-0.178L6.589,7.63l1.885,1.886    c0.118,0.118,0.272,0.177,0.428,0.177s0.311-0.059,0.43-0.177c0.236-0.236,0.236-0.62,0-0.857L7.445,6.772l1.886-1.884    c0.236-0.237,0.236-0.62,0-0.857c-0.237-0.237-0.62-0.237-0.857,0L6.589,5.917L4.704,4.031c-0.236-0.237-0.62-0.237-0.856,0    c-0.237,0.237-0.237,0.62,0,0.857l1.884,1.884L3.847,8.658C3.609,8.895,3.609,9.278,3.847,9.515L3.847,9.515z M3.847,9.515"/>
		<path fill="#FFFFFF" d="M8.857,16.967H4.319c-0.335,0-0.605,0.271-0.605,0.605s0.271,0.605,0.605,0.605h4.538c0.336,0,0.606-0.271,0.606-0.605    S9.193,16.967,8.857,16.967L8.857,16.967z M8.857,16.967"/>
		<path fill="#FFFFFF" d="M19.674,18.254h-4.538c-0.335,0-0.605,0.271-0.605,0.605c0,0.336,0.271,0.607,0.605,0.607h4.538    c0.334,0,0.605-0.271,0.605-0.607C20.279,18.525,20.009,18.254,19.674,18.254L19.674,18.254z M19.674,18.254"/>
		<path fill="#FFFFFF" d="M19.674,15.678h-4.538c-0.335,0-0.605,0.273-0.605,0.607s0.271,0.605,0.605,0.605h4.538c0.334,0,0.605-0.271,0.605-0.605    S20.009,15.678,19.674,15.678L19.674,15.678z M19.674,15.678"/>
	</g>
</g>
<g id="Layer_3">
</g>
<g id="Layer_4">
</g>
<g id="Layer_5">
</g>
<g id="Layer_6">
</g>
<g id="Layer_7">
</g>
<g id="Layer_8">
</g>
<g id="Layer_9">
</g>
<g id="Layer_10">
</g>
<g id="Layer_11">
</g>
</svg>