<?xml version='1.0' encoding='utf-8'?><!-- Generator: Adobe Illustrator 16.0.3, SVG Export Plug-In . SVG Version: 6.00 Build 0)  --><!DOCTYPE svg PUBLIC "-//W3C//DTD SVG 1.1//EN" "http://www.w3.org/Graphics/SVG/1.1/DTD/svg11.dtd" []><svg xmlns="http://www.w3.org/2000/svg" xmlns:xlink="http://www.w3.org/1999/xlink" version="1.1" x="0px" y="0px" width="24px" height="24px" viewBox="0 0 24 24" enable-background="new 0 0 24 24" xml:space="preserve" preserveAspectRatio="xMidYMid meet" zoomAndPan="magnify" contentScriptType="application/ecmascript" contentStyleType="text/css">
<g id="Layer_1">
</g>
<g id="Layer_2">
</g>
<g id="Layer_3">
</g>
<g id="Layer_4">
	<g>
		<g id="_x32__1_">
			<g>
				<path fill="#FFFFFF" d="M15.582,12.716H8.418c-0.396,0-0.717,0.32-0.717,0.716c0,0.397,0.32,0.717,0.717,0.717h7.164      c0.396,0,0.717-0.319,0.717-0.717C16.299,13.036,15.979,12.716,15.582,12.716z M17.016,8.416H6.984      c-0.396,0-0.717,0.321-0.717,0.716c0,0.396,0.32,0.717,0.717,0.717h10.031c0.396,0,0.717-0.32,0.717-0.717      C17.732,8.737,17.412,8.416,17.016,8.416z M12,0.534c-6.332,0-11.465,4.492-11.465,10.031c0,3.166,1.682,5.986,4.299,7.825      v5.075l5.023-3.048c0.695,0.114,1.41,0.181,2.143,0.181c6.332,0,11.465-4.491,11.465-10.033C23.465,5.026,18.332,0.534,12,0.534      z M12,19.166c-0.836,0-1.645-0.098-2.422-0.264L6.205,20.93l0.045-3.324c-2.586-1.554-4.281-4.125-4.281-7.04      c0-4.748,4.49-8.6,10.031-8.6s10.031,3.852,10.031,8.6C22.031,15.315,17.541,19.166,12,19.166z"/>
			</g>
		</g>
	</g>
</g>
<g id="Layer_5">
</g>
<g id="Layer_6">
</g>
<g id="Layer_7">
</g>
<g id="Layer_8">
</g>
<g id="Layer_9">
</g>
<g id="Layer_10">
</g>
<g id="Layer_11">
</g>
</svg>