<?xml version='1.0' encoding='utf-8'?><!-- Generator: Adobe Illustrator 16.0.3, SVG Export Plug-In . SVG Version: 6.00 Build 0)  --><!DOCTYPE svg PUBLIC "-//W3C//DTD SVG 1.1//EN" "http://www.w3.org/Graphics/SVG/1.1/DTD/svg11.dtd" []><svg xmlns="http://www.w3.org/2000/svg" xmlns:xlink="http://www.w3.org/1999/xlink" version="1.1" x="0px" y="0px" width="24px" height="24px" viewBox="0 0 24 24" enable-background="new 0 0 24 24" xml:space="preserve" preserveAspectRatio="xMidYMid meet" zoomAndPan="magnify" contentScriptType="application/ecmascript" contentStyleType="text/css">
<g id="Layer_1">
</g>
<g id="Layer_2">
</g>
<g id="Layer_3">
</g>
<g id="Layer_4">
</g>
<g id="Layer_5">
</g>
<g id="Layer_6">
</g>
<g id="Layer_7">
</g>
<g id="Layer_8">
</g>
<g id="Layer_9">
</g>
<g id="Layer_10">
</g>
<g id="Layer_11">
	<g id="_x31__6_">
		<g>
			<path fill="#FFFFFF" d="M17.062,2.473c-2.108,0-3.705,1.238-5.062,2.531c-1.292-1.372-2.954-2.531-5.062-2.531c-2.971,0-5.062,2.554-5.062,5.34     c0,1.495,0.611,2.57,1.281,3.581l7.867,9.433c0.884,0.935,1.051,0.935,1.934,0l7.885-9.433c0.788-1.011,1.281-2.086,1.281-3.581     C22.124,5.027,20.032,2.473,17.062,2.473z M19.593,11.131L12,20.192l-7.594-9.099C3.498,9.832,3.142,8.98,3.142,7.813     c0-2.176,1.553-4.135,3.797-4.153C8.782,3.644,10.874,5.529,12,6.95c1.096-1.371,3.217-3.291,5.062-3.291     c2.185,0,3.797,1.977,3.797,4.153C20.858,8.98,20.576,9.895,19.593,11.131z"/>
		</g>
	</g>
</g>
</svg>