<?xml version='1.0' encoding='utf-8'?><!-- Generator: Adobe Illustrator 16.0.3, SVG Export Plug-In . SVG Version: 6.00 Build 0)  --><!DOCTYPE svg PUBLIC "-//W3C//DTD SVG 1.1//EN" "http://www.w3.org/Graphics/SVG/1.1/DTD/svg11.dtd" []><svg xmlns="http://www.w3.org/2000/svg" xmlns:xlink="http://www.w3.org/1999/xlink" version="1.1" id="Layer_1" x="0px" y="0px" width="24px" height="24px" viewBox="0 0 24 24" enable-background="new 0 0 24 24" xml:space="preserve" preserveAspectRatio="xMidYMid meet" zoomAndPan="magnify" contentScriptType="application/ecmascript" contentStyleType="text/css">
<g id="Layer_1_1_">
</g>
<g id="Layer_2">
</g>
<g id="Layer_3">
</g>
<g id="Layer_4">
</g>
<g id="Layer_5">
</g>
<g id="Layer_6">
</g>
<g id="Layer_8">
</g>
<g id="Layer_9">
</g>
<g id="Layer_10">
</g>
<path d="M12,0.5C5.648,0.5,0.5,5.649,0.5,12c0,6.351,5.148,11.5,11.5,11.5c6.351,0,11.5-5.149,11.5-11.5  C23.5,5.649,18.351,0.5,12,0.5z M16.087,2.516c1.74,0.752,3.228,1.973,4.317,3.498c-0.26,0.615-0.592,1.182-1.1,1.646  c-0.063,0.058-0.132,0.108-0.197,0.165c-0.163,0.141-0.334,0.178-0.562,0.158c-1.145-0.102-2.203,0.168-3.156,0.822  C15.29,8.872,15.2,8.954,15.122,9.043c-0.322,0.377-0.186,0.876,0.287,1.031c0.122,0.04,0.174,0.104,0.204,0.219  c0.108,0.424,0.228,0.846,0.338,1.27c0.081,0.309,0.314,0.462,0.585,0.573c0.317,0.13,0.649,0.094,0.979,0.055  c0.039-0.005,0.076-0.011,0.116-0.017c0.019,0.012,0.039,0.024,0.059,0.036c-0.049,0.126-0.071,0.273-0.15,0.376  c-0.328,0.43-0.669,0.848-1.016,1.263c-0.266,0.318-0.559,0.616-0.818,0.94c-0.368,0.458-0.29,0.842,0.123,1.271  c0.093,0.098,0.198,0.182,0.31,0.282c-0.324,0.34-0.684,0.595-1.085,0.789c-0.047,0.022-0.093,0.046-0.142,0.062  c-0.276,0.099-0.398,0.298-0.403,0.586c-0.008,0.61-0.225,1.115-0.76,1.443c-0.457,0.282-0.971,0.346-1.494,0.346  c-0.068,0-0.16-0.069-0.202-0.131c-0.319-0.487-0.567-1.014-0.746-1.568c-0.053-0.165,0.023-0.307,0.09-0.455  c0.114-0.253,0.225-0.508,0.318-0.77c0.117-0.32,0.054-0.637-0.117-0.919c-0.186-0.306-0.383-0.607-0.609-0.883  c-0.139-0.169-0.2-0.346-0.24-0.549c-0.122-0.648-0.453-1.157-1.096-1.366c-0.312-0.102-0.661-0.107-0.994-0.117  c-0.358-0.012-0.72,0.01-1.077,0.038c-0.599,0.047-0.86-0.244-1.011-0.777c-0.142-0.496-0.085-0.997,0.01-1.49  c0.113-0.597,0.3-1.169,0.681-1.658c0.318-0.409,0.729-0.67,1.239-0.753c0.365-0.06,0.733-0.096,1.102-0.131  C9.705,8.03,9.814,8.062,9.92,8.08c0.161,0.027,0.257,0.105,0.334,0.268c0.146,0.301,0.438,0.454,0.735,0.577  c0.577,0.237,1.174,0.204,1.768,0.098c0.526-0.094,1.047-0.222,1.571-0.331c0.1-0.021,0.202-0.027,0.304-0.036  c0.248-0.021,0.464-0.206,0.485-0.452c0.053-0.584,0.111-1.169,0.128-1.755c0.012-0.455-0.058-0.909-0.257-1.331  c-0.228-0.477-0.602-0.608-1.085-0.395c-0.177,0.078-0.358,0.149-0.543,0.2c-0.232,0.065-0.432-0.022-0.523-0.242  c-0.193-0.461-0.162-0.716,0.216-1.012c0.423-0.331,0.914-0.535,1.419-0.695C15.005,2.805,15.546,2.658,16.087,2.516z M12,22.331  C6.304,22.331,1.669,17.696,1.669,12C1.669,6.303,6.304,1.669,12,1.669c0.757,0,1.493,0.087,2.205,0.243  c-0.318,0.157-0.571,0.281-0.623,0.306c-0.569,0.267-1.118,0.567-1.547,1.044c-0.483,0.538-0.514,1.088-0.227,1.709  c0.326,0.705,1.084,1.085,1.852,0.959c0.162-0.027,0.322-0.064,0.523-0.106c-0.028,0.58-0.056,1.131-0.091,1.682  c-0.004,0.042-0.077,0.105-0.127,0.117c-0.376,0.091-0.752,0.195-1.134,0.25c-0.397,0.058-0.802,0.081-1.203,0.087  c-0.211,0.004-0.383-0.102-0.492-0.31c-0.16-0.303-0.434-0.485-0.759-0.568C9.476,6.853,8.585,6.954,7.723,7.257  C6.932,7.536,6.4,8.122,6.022,8.856c-0.311,0.604-0.477,1.25-0.576,1.92c-0.104,0.704-0.055,1.386,0.237,2.04  c0.242,0.545,0.626,0.942,1.225,1.07c0.246,0.054,0.509,0.049,0.764,0.05c0.489,0.002,0.98-0.026,1.47-0.013  c0.365,0.012,0.506,0.163,0.555,0.521c0.014,0.103,0.021,0.206,0.014,0.308c-0.015,0.222,0.076,0.389,0.227,0.546  c0.217,0.232,0.413,0.486,0.618,0.729c0.127,0.151,0.143,0.315,0.042,0.487c-0.062,0.104-0.116,0.212-0.169,0.317  c-0.206,0.414-0.328,0.843-0.154,1.3c0.103,0.271,0.21,0.541,0.338,0.8c0.258,0.522,0.561,1.018,0.981,1.431  c0.238,0.234,0.515,0.354,0.851,0.304c0.377-0.056,0.761-0.093,1.127-0.187c0.651-0.169,1.202-0.511,1.587-1.083  c0.236-0.354,0.355-0.749,0.417-1.163c0.016-0.111,0.068-0.179,0.17-0.232c0.435-0.236,0.826-0.526,1.167-0.885  c0.32-0.332,0.45-0.726,0.256-1.156c-0.095-0.209-0.27-0.39-0.431-0.562c-0.093-0.096-0.099-0.136,0-0.225  c0.207-0.188,0.408-0.379,0.601-0.582c0.456-0.48,0.897-0.972,1.179-1.582c0.273-0.595,0.363-1.184-0.044-1.766  c-0.195-0.278-0.488-0.376-0.802-0.247c-0.151,0.062-0.312,0.107-0.47,0.155c-0.139,0.042-0.218-0.015-0.273-0.151  c-0.19-0.462-0.395-0.918-0.586-1.378c-0.016-0.038,0.009-0.128,0.04-0.143c0.714-0.359,1.462-0.538,2.264-0.374  c0.221,0.045,0.419,0.031,0.623-0.083c0.754-0.421,1.311-1.035,1.737-1.772c0.024-0.04,0.065-0.079,0.104-0.118  c0.778,1.451,1.223,3.108,1.223,4.867C22.331,17.696,17.696,22.331,12,22.331z" fill="#FFFFFF"/>
</svg>