<?xml version='1.0' encoding='utf-8'?><!-- Generator: Adobe Illustrator 16.0.3, SVG Export Plug-In . SVG Version: 6.00 Build 0)  --><!DOCTYPE svg PUBLIC "-//W3C//DTD SVG 1.1//EN" "http://www.w3.org/Graphics/SVG/1.1/DTD/svg11.dtd" []><svg xmlns="http://www.w3.org/2000/svg" xmlns:xlink="http://www.w3.org/1999/xlink" version="1.1" x="0px" y="0px" width="24px" height="24px" viewBox="0 0 24 24" enable-background="new 0 0 24 24" xml:space="preserve" preserveAspectRatio="xMidYMid meet" zoomAndPan="magnify" contentScriptType="application/ecmascript" contentStyleType="text/css">
<g id="Layer_1">
</g>
<g id="Layer_2">
</g>
<g id="Layer_3">
</g>
<g id="Layer_4">
</g>
<g id="Layer_5">
</g>
<g id="Layer_6">
</g>
<g id="Layer_7">
</g>
<g id="Layer_8">
	<path fill="#FFFFFF" d="M22.499,20.945L15.524,7.838c0.174-0.004,0.342,0.009,0.486,0.035c0.703,0.125,1.305,0.509,1.895,1.208l0.133,0.16   c0.191,0.231,0.389,0.47,0.635,0.686c0.514,0.453,1.178,0.561,1.779,0.29c0.588-0.264,0.943-0.78,1.002-1.452   c0.053-0.583-0.125-1.14-0.543-1.701c-1.098-1.476-2.543-2.475-4.295-2.97c-1.574-0.445-3.098-0.376-4.486,0.202   c0.178-0.386,0.285-0.812,0.285-1.264C12.415,1.359,11.056,0,9.385,0s-3.03,1.359-3.03,3.031c0,1.389,0.945,2.55,2.222,2.907   C8.224,6.022,7.878,6.077,7.528,6.079c-0.816,0-1.35-0.125-1.779-0.422C5.503,5.488,5.274,5.266,5.032,5.031   C4.919,4.921,4.806,4.812,4.689,4.706C4.61,4.633,4.534,4.556,4.458,4.479c-0.188-0.19-0.4-0.406-0.666-0.573   C3.513,3.733,3.199,3.642,2.884,3.642c-0.794,0-1.471,0.567-1.646,1.378C1.112,5.607,1.259,6.182,1.685,6.777   c0.664,0.927,1.376,1.654,2.178,2.224c1.74,1.233,3.623,1.649,5.78,1.183l1.97,3.576l-2.764,1.907   c-0.777,0.539-1.081,1.48-0.754,2.342c0.263,0.693,0.701,1.204,1.303,1.52c1.104,0.579,2.207,1.155,3.319,1.72l0.229,0.117   c0.547,0.278,1.113,0.566,1.709,0.796c0.826,0.32,1.658,0.115,2.178-0.515c0.371-0.453,0.535-1.078,0.428-1.633   c-0.113-0.58-0.459-1.042-1.055-1.414l-2.049-1.283l0,0l1.318-0.629l3.467,5.953c0.287,0.494,0.719,1.094,1.496,1.332L21.249,24   l0.289-0.141c0.158-0.072,0.338-0.152,0.51-0.283C22.862,22.959,23.034,21.95,22.499,20.945z M7.579,3.031   c0-0.996,0.811-1.806,1.806-1.806s1.806,0.81,1.806,1.806c0,0.995-0.811,1.806-1.806,1.806S7.579,4.026,7.579,3.031z M21.31,22.6   c-0.062,0.047-0.166,0.094-0.275,0.143c-0.023,0.012-0.047,0.022-0.07,0.033h-0.242c-0.264-0.105-0.473-0.324-0.721-0.751   l-3.6-6.183L15.958,15.1l-4.281,2.044l3.881,2.496c0.305,0.19,0.455,0.372,0.502,0.608c0.037,0.199-0.031,0.448-0.172,0.62   c-0.189,0.229-0.459,0.28-0.791,0.151c-0.537-0.207-1.051-0.469-1.596-0.746l-0.23-0.117c-1.105-0.562-2.205-1.135-3.304-1.712   c-0.333-0.175-0.571-0.459-0.728-0.87c-0.129-0.341-0.016-0.678,0.307-0.9l3.67-2.542l-2.504-4.542   c-0.164-0.298-0.369-0.67-0.879-0.67c-0.137,0-0.268,0.029-0.457,0.07C7.642,9.367,6.034,9.04,4.571,8.002   C3.882,7.513,3.264,6.879,2.681,6.065C2.456,5.753,2.384,5.517,2.435,5.278c0.076-0.345,0.414-0.515,0.709-0.332   c0.145,0.09,0.289,0.237,0.443,0.393C3.679,5.432,3.77,5.523,3.864,5.611c0.107,0.097,0.211,0.199,0.315,0.3   C4.448,6.17,4.726,6.439,5.056,6.666c0.82,0.564,1.75,0.637,2.529,0.637c0.001,0,0.002,0,0.003,0c1.341-0.009,2.468-0.53,3.3-0.984   l0.42-0.232c0.441-0.247,0.857-0.479,1.291-0.66c1.137-0.473,2.375-0.523,3.684-0.155c1.486,0.42,2.713,1.269,3.646,2.523   c0.236,0.318,0.332,0.583,0.307,0.861C20.21,8.944,20.083,9.04,19.95,9.1c-0.17,0.078-0.311,0.047-0.469-0.092   c-0.172-0.151-0.33-0.343-0.498-0.546l-0.143-0.17c-0.775-0.917-1.629-1.448-2.615-1.625c-0.562-0.1-1.311-0.053-1.832,0.117   l-0.688,0.223l7.713,14.513C21.591,21.844,21.712,22.295,21.31,22.6z"/>
</g>
<g id="Layer_9">
</g>
<g id="Layer_10">
</g>
<g id="Layer_11">
</g>
</svg>