<?xml version='1.0' encoding='utf-8'?><!-- Generator: Adobe Illustrator 16.0.3, SVG Export Plug-In . SVG Version: 6.00 Build 0)  --><!DOCTYPE svg PUBLIC "-//W3C//DTD SVG 1.1//EN" "http://www.w3.org/Graphics/SVG/1.1/DTD/svg11.dtd" []><svg xmlns="http://www.w3.org/2000/svg" xmlns:xlink="http://www.w3.org/1999/xlink" version="1.1" x="0px" y="0px" width="24px" height="24px" viewBox="0 0 24 24" enable-background="new 0 0 24 24" xml:space="preserve" preserveAspectRatio="xMidYMid meet" zoomAndPan="magnify" contentScriptType="application/ecmascript" contentStyleType="text/css">
<g id="Layer_1">
</g>
<g id="Layer_2">
</g>
<g id="Layer_3">
</g>
<g id="Layer_4">
</g>
<g id="Layer_5">
</g>
<g id="Layer_6">
</g>
<g id="Layer_7">
</g>
<g id="Layer_8">
</g>
<g id="Layer_9">
</g>
<g id="Layer_10">
	<g id="_x38__2_">
		<g>
			<path fill="#FFFFFF" d="M9.607,15.881l0.636-3.165l-1.189-0.688l-0.904,6.377l5.07-3.971l-1.191-0.688L9.607,15.881z M12.683,12.339     c0-0.569-0.461-1.031-1.031-1.031c-0.568,0-1.031,0.462-1.031,1.031s0.463,1.032,1.031,1.032     C12.222,13.371,12.683,12.909,12.683,12.339z M11.274,10.932l2.422-2.133l-0.637,3.164l1.189,0.688l0.904-6.377l-5.07,3.971     L11.274,10.932z M11.999,1.694C6.308,1.694,1.693,6.309,1.693,12c0,5.692,4.614,10.307,10.306,10.307S22.306,17.691,22.306,12     C22.306,6.309,17.69,1.694,11.999,1.694z M11.995,20.932c-4.935,0-8.936-4-8.936-8.936c0-4.935,4.001-8.935,8.936-8.935     c4.936,0,8.936,4,8.936,8.935C20.931,16.932,16.931,20.932,11.995,20.932z"/>
		</g>
	</g>
</g>
<g id="Layer_11">
</g>
</svg>