<?xml version='1.0' encoding='utf-8'?><!-- Generator: Adobe Illustrator 16.0.3, SVG Export Plug-In . SVG Version: 6.00 Build 0)  --><!DOCTYPE svg PUBLIC "-//W3C//DTD SVG 1.1//EN" "http://www.w3.org/Graphics/SVG/1.1/DTD/svg11.dtd" []><svg xmlns="http://www.w3.org/2000/svg" xmlns:xlink="http://www.w3.org/1999/xlink" version="1.1" id="Layer_1" x="0px" y="0px" width="24px" height="24px" viewBox="0 0 24 24" enable-background="new 0 0 24 24" xml:space="preserve" preserveAspectRatio="xMidYMid meet" zoomAndPan="magnify" contentScriptType="application/ecmascript" contentStyleType="text/css">
<path d="M12,7.622c-2.763,0-5.004,2.24-5.004,5.003c0,2.765,2.241,5.006,5.004,5.006c2.763,0,5.004-2.241,5.004-5.006  C17.005,9.861,14.763,7.622,12,7.622 M12,16.379c-2.074,0-3.753-1.68-3.753-3.754c0-2.073,1.68-3.753,3.753-3.753  c2.073,0,3.754,1.68,3.754,3.753C15.754,14.699,14.073,16.379,12,16.379 M22.01,18.881c0,0.691-0.561,1.252-1.251,1.252H3.242  c-0.691,0-1.251-0.562-1.251-1.252V7.622c0-0.69,0.561-1.251,1.251-1.251h2.502c2.502,0,2.502-2.502,4.38-2.502H12h1.876  c1.878,0,1.878,2.502,4.38,2.502h2.501c0.692,0,1.252,0.561,1.252,1.251L22.01,18.881L22.01,18.881z M23.26,13.876V7.621  c0-1.382-1.119-2.502-2.501-2.502h-2.503c-1.877,0-1.877-2.502-4.38-2.502h-3.752c-2.502,0-2.502,2.503-4.379,2.503H3.242  c-1.383,0-2.502,1.12-2.502,2.502v6.254v1.253v3.752c0,1.384,1.12,2.503,2.502,2.503h17.515c1.383,0,2.502-1.119,2.502-2.503v-3.752  L23.26,13.876L23.26,13.876z M12,10.125c-1.382,0-2.502,1.12-2.502,2.501s1.121,2.503,2.502,2.503c1.381,0,2.503-1.121,2.503-2.503  C14.503,11.243,13.381,10.125,12,10.125 M12,13.876c-0.69,0-1.251-0.56-1.251-1.251c0-0.689,0.561-1.25,1.251-1.25  c0.689,0,1.251,0.562,1.251,1.25C13.251,13.316,12.689,13.876,12,13.876 M19.506,7.622c-0.69,0-1.25,0.561-1.25,1.251  c0,0.691,0.561,1.251,1.25,1.251c0.69,0,1.251-0.56,1.251-1.251C20.759,8.181,20.197,7.622,19.506,7.622" fill="#FFFFFF"/>
</svg>